/* XPM */
static char *image_xpm[] = {
/* width height ncolors chars_per_pixel */
"16 16 83 1",
"  c #008ffc",
". c #00a9ff",
"+ c #00b6fb",
"@ c #00b4ff",
"# c #00aeff",
"$ c #00abff",
"% c #0091fe",
"& c #b6dde9",
"* c #e8f2f9",
"= c #f0fafd",
"- c #91c5e3",
"; c #9f9bf2",
"> c #d0c4e9",
", c #7f4aff",
"' c #7d49ff",
") c #6862f8",
"! c #a582dc",
"~ c #1c96f2",
"{ c #67b4d7",
"] c #ffffff",
"^ c #426bfd",
"/ c #6cb8f1",
"( c #fafdfe",
"_ c #b5aae1",
": c #7090fc",
"< c #e3f2f6",
"[ c #0b7efc",
"} c #d2eaf6",
"| c #e1d3f6",
"1 c #9c7bf0",
"2 c #37aff1",
"3 c #e3dcf6",
"4 c #6158fe",
"5 c #f7f3fd",
"6 c #97c1ee",
"7 c #efeffa",
"8 c #fbfdfd",
"9 c #479cfc",
"0 c #d9ebf1",
"a c #2da6e6",
"b c #cdbdea",
"c c #1ea2e9",
"d c #dcd5f4",
"e c #fcfcfd",
"f c #8761e7",
"g c #744fff",
"h c #bb99ea",
"i c #4bb2da",
"j c #8f6bf0",
"k c #7fbfe0",
"l c #82d1e9",
"m c #4fb7ef",
"n c #92a6ea",
"o c #0fa1f7",
"p c #7071f1",
"q c #c9e8f6",
"r c #6f52ff",
"s c #afd2e4",
"t c #f1ecf8",
"u c #e8dff2",
"v c #8d34fe",
"w c #af98e2",
"x c #9962db",
"y c #6e67f5",
"z c #79afea",
"A c #daeaf6",
"B c #fcfafe",
"C c #e5e4f6",
"D c #9e6adf",
"E c #f7fcfe",
"F c #e8f3f6",
"G c #abbaef",
"H c #426dff",
"I c #8149f7",
"J c #7872f1",
"K c #8156ed",
"L c #44afd4",
"M c #0db1f2",
"N c #27b6ec",
"O c #c7e8f3",
"P c #0b7fff",
"Q c #2d9bef",
"R c #6259ff",
"]]]]]]]]]]]]]]]]",
"]]]]]]]]]]]]]]]]",
"]]]]]]]]]]]]]]]]",
"]]]]]]]]]]]]]]]]",
"]]]]t14HP mF]]]]",
"]]]eD'ynz~.i8]]]",
"]]]>vKC]]Ac+&]]]",
"]5dprw]]]]k@NO=(",
"]hIg)_]]]]-o#Ml<",
"]B|b!f7]]*a{sqE]",
"]]]]x,JG6Q$L]]]]",
"]]]]ujR^[%20]]]]",
"]]]]]3;:9/}]]]]]",
"]]]]]]]]]]]]]]]]",
"]]]]]]]]]]]]]]]]",
"]]]]]]]]]]]]]]]]",
};