/* XPM */
static char *image_xpm[] = {
/* width height ncolors chars_per_pixel */
"32 32 252 2",
"   c #0080fa",
" . c #008afa",
" + c #0093fa",
" @ c #0081fc",
" # c #008af9",
" $ c #0092f9",
" % c #009efd",
" & c #008eff",
" * c #009af7",
" = c #00a8fd",
" - c #0094fc",
" ; c #009cf9",
" > c #00a3f5",
" , c #00b5ff",
" ' c #00a4f7",
" ) c #00acf6",
" ! c #00bbfc",
" ~ c #00a9ff",
" { c #00adf5",
" ] c #00bcfd",
" ^ c #00b0fa",
" / c #00b2f7",
" ( c #00b6f8",
" _ c #00aafb",
" : c #00a9f5",
" < c #00b0f8",
" [ c #00a1fe",
" } c #00a2f6",
" | c #00a7f6",
" 1 c #00adf8",
" 2 c #00b6fb",
" 3 c #009fff",
" 4 c #00a3fb",
" 5 c #00a9fb",
" 6 c #00acf9",
" 7 c #50c0e8",
" 8 c #00a9fc",
" 9 c #009dfd",
" 0 c #00a2f5",
" a c #00b8ff",
" b c #008cfe",
" c c #0093fb",
" d c #009af6",
" e c #00a6fa",
" f c #0082fd",
" g c #0092f8",
" h c #009dfb",
" i c #0095fd",
" j c #9956e2",
" k c #6b58fb",
" l c #c8b1dd",
" m c #d9c6f1",
" n c #7f40fe",
" o c #5a88fd",
" p c #5a5dfe",
" q c #4b67fe",
" r c #f9f8fa",
" s c #6cbdee",
" t c #942fff",
" u c #8183f7",
" v c #07b5f6",
" w c #5a62ff",
" x c #2c98fd",
" y c #e9f3f8",
" z c #14b0f1",
" A c #734cff",
" B c #d5e4ec",
" C c #ded4f3",
" D c #d5ebf1",
" E c #6654fc",
" F c #c8e5f3",
" G c #14b1f2",
" H c #90ceec",
" I c #b79ce2",
" J c #ccdce5",
" K c #65add7",
" L c #8149f8",
" M c #14a9f5",
" N c #942efe",
" O c #0ca6f3",
" P c #aeb0e3",
" Q c #05abfa",
" R c #ffffff",
" S c #a471e9",
" T c #3ea4f5",
" U c #91cadc",
" V c #bae4f1",
" W c #6f5ef7",
" X c #5b5fff",
" Y c #9859de",
" Z c #8b8ce0",
" ` c #e4d9f3",
".  c #c4dce4",
".. c #ccd2ee",
".+ c #8b39ff",
".@ c #a8cfe5",
".# c #177afa",
".$ c #6156fd",
".% c #dacde8",
".& c #bfd8ef",
".* c #4c68fc",
".= c #14b6f0",
".- c #4e7aec",
".; c #724bff",
".> c #18a1f2",
"., c #6bbce9",
".' c #87c7e2",
".) c #7946ff",
".! c #853efb",
".~ c #806bde",
".{ c #8b45f1",
".] c #7652f1",
".^ c #5361fc",
"./ c #a7d2df",
".( c #844ef4",
"._ c #78bceb",
".: c #6855ff",
".< c #776ceb",
".[ c #e1eef9",
".} c #91bee1",
".| c #05b1f7",
".1 c #c1b0e6",
".2 c #d8cae5",
".3 c #b38de7",
".4 c #3283ec",
".5 c #7b42ff",
".6 c #6e53ff",
".7 c #b3aceb",
".8 c #7748ff",
".9 c #75cce5",
".0 c #8bc4ea",
".a c #3d90fc",
".b c #1578fb",
".c c #a79feb",
".d c #4c67fe",
".e c #48b9dc",
".f c #f0eef8",
".g c #44abe9",
".h c #38a1dd",
".i c #39afd9",
".j c #aeacdc",
".k c #94c3e4",
".l c #ddedf7",
".m c #fbfcfc",
".n c #9b6bea",
".o c #8636ff",
".p c #684ffe",
".q c #fcfcfd",
".r c #157aff",
".s c #7c42ff",
".t c #8c3aff",
".u c #4b66fd",
".v c #e4e9f7",
".w c #6754fe",
".x c #744dfc",
".y c #0f9cef",
".z c #714afe",
".A c #01aafe",
".B c #7f45ff",
".C c #bfdef3",
".D c #3b71fb",
".E c #b7a2dd",
".F c #8e46f5",
".G c #a98eed",
".H c #6178f3",
".I c #8936ff",
".J c #c1acd8",
".K c #e9e5f7",
".L c #8d5ced",
".M c #c1a5ed",
".N c #2dabea",
".O c #4c66ff",
".P c #43c0e8",
".Q c #b5afe6",
".R c #744bff",
".S c #aa9aea",
".T c #3a72ff",
".U c #e8ebfa",
".V c #6754ff",
".W c #6787de",
".X c #7f44ff",
".Y c #7941ff",
".Z c #7b6ee9",
".` c #e3f2f7",
"+  c #8538ff",
"+. c #5a5eff",
"++ c #fefdff",
"+@ c #fdfeff",
"+# c #31a6ea",
"+$ c #6a80ff",
"+% c #7a41ff",
"+& c #d5c3f0",
"+* c #d9d4e8",
"+= c #ab8beb",
"+- c #508ede",
"+; c #8876df",
"+> c #35b2dc",
"+, c #a598d1",
"+' c #7477ed",
"+) c #7e42ff",
"+! c #7c59f3",
"+~ c #c6dce4",
"+{ c #a1c9d6",
"+] c #b4daea",
"+^ c #8044fe",
"+/ c #595cfe",
"+( c #9ccde6",
"+_ c #595cfd",
"+: c #8f76e8",
"+< c #5ca4de",
"+[ c #ebf4f8",
"+} c #1085f4",
"+| c #3299ec",
"+1 c #f5f2fa",
"+2 c #605afe",
"+3 c #824ff4",
"+4 c #5365fd",
"+5 c #0382fa",
"+6 c #77c8e4",
"+7 c #893afd",
"+8 c #81b4d1",
"+9 c #d4d0f4",
"+0 c #f6fbfc",
"+a c #e0eaf7",
"+b c #d2e9f3",
"+c c #167cff",
"+d c #744cff",
"+e c #f1eef8",
"+f c #6950fd",
"+g c #238ef3",
"+h c #f0f8fc",
"+i c #f9f7fc",
"+j c #8344fb",
"+k c #289feb",
"+l c #704dff",
"+m c #386ffb",
"+n c #1297f4",
"+o c #f7fafa",
"+p c #6653fd",
"+q c #dfdbeb",
"+r c #8ec1d9",
"+s c #6a50ff",
"+t c #536df4",
"+u c #734bff",
"+v c #e6dbf2",
"+w c #01b3fb",
"+x c #9684d3",
"+y c #049ffb",
"+z c #ede9f7",
"+A c #c6bae6",
"+B c #3971ff",
"+C c #6653fe",
" R R R R R R R R R R R R R R R R R R R R R R R R R R R R R R R R",
" R R R R R R R R R R R R R R R R R R R R R R R R R R R R R R R R",
" R R R R R R R R R R R R R R R R R R R R R R R R R R R R R R R R",
" R R R R R R R R R R R R R R R R R R R R R R R R R R R R R R R R",
" R R R R R R R R R R R R R R R R R R R R R R R R R R R R R R R R",
" R R R R R R R R R R R R R R R R R R R R R R R R R R R R R R R R",
" R R R R R R R R R R R R R R R R R R R R R R R R R R R R R R R R",
" R R R R R R R R R R R.f.7 u+$ o.a x T.0 y R R R R R R R R R R R",
" R R R R R R R R R R C+: E p.u+m.b   . +.g F R R R R R R R R R R",
" R R R R R R R R R+&.(+d+C+_ q+B.r @ # $ % M+] R R R R R R R R R",
" R R R R R R R R.%.{+).z+C X.*.-.4+5 & $ * = z+~ R R R R R R R R",
" R R R R R R R r Y.++%.;.: Z...v+a.&+< - ; > ,.i+o R R R R R R R",
" R R R R R R R l N+ .5.x.Q R R R R R R.k+y ' ) !./ R R R R R R R",
" R R R R R R R+; t.o.B+x R R R R R R R R K ~ { ].e R R R R R R R",
" R R R R R R.j+4.p.I L+* R R R R R R R R J O ^ / ( U R R R R R R",
" R++ R R+z.S k+2.^+s.L+e R R R R R R R R+[.N _ : < v+6.` R R+@ R",
" R+v.3.n+3.8+l+f.$ w.Z+1 R R R R R R R R+h+# [ } | 1 2.=.P.9 D R",
" R+i m S.! n.).R.6.<.~+q R R R R R R R R B.h+k 3 4 5 6.| 7 V+0 R",
" R R R R `.M+=.G+A.E+j+, R R R R R R R R+8 Q+r.@ s., H+b R R R R",
" R R R R R R R R.2.F.X.]+9 R R R R R R.C.y 8 G.  R R R R R R R R",
" R R R R R R R.q j.t.Y A W P.U R R.[.}+n 9 0 a+>.m R R R R R R R",
" R R R R R R R R.J+7.s.z.V+..H.W+-+g b c d e+w+{ R R R R R R R R",
" R R R R R R R R R I+^+u+p+/.O.T+c f . g h.A.' R R R R R R R R R",
" R R R R R R R R R R.1+!.w+..d+m.b @ b i.>+( R R R R R R R R R R",
" R R R R R R R R R R R.K.c+'+t.D.#+}+|._.l R R R R R R R R R R R",
" R R R R R R R R R R R R R R R R R R R R R R R R R R R R R R R R",
" R R R R R R R R R R R R R R R R R R R R R R R R R R R R R R R R",
" R R R R R R R R R R R R R R R R R R R R R R R R R R R R R R R R",
" R R R R R R R R R R R R R R R R R R R R R R R R R R R R R R R R",
" R R R R R R R R R R R R R R R R R R R R R R R R R R R R R R R R",
" R R R R R R R R R R R R R R R R R R R R R R R R R R R R R R R R",
" R R R R R R R R R R R R R R R R R R R R R R R R R R R R R R R R",
};