/* XPM */
static char *image_xpm[] = {
/* width height ncolors chars_per_pixel */
"48 48 387 2",
"   c #0083fb",
" . c #0082fa",
" + c #0089fb",
" @ c #0091fd",
" # c #0096fc",
" $ c #0088f9",
" % c #008ef9",
" & c #0093f8",
" * c #009dfc",
" = c #80c1e0",
" - c #0099f7",
" ; c #00a0f9",
" > c #00aafd",
" , c #0084fd",
" ' c #009ff7",
" ) c #00a5f7",
" ! c #00b2ff",
" ~ c #008bfd",
" { c #0090fd",
" ] c #00a5f6",
" ^ c #00acf8",
" / c #00b7fb",
" ( c #0097fd",
" _ c #00abf6",
" : c #00b6fd",
" < c #009dfe",
" [ c #00b1f5",
" } c #00beff",
" | c #00a3fd",
" 1 c #00bbfc",
" 2 c #00a6f7",
" 3 c #00b1f6",
" 4 c #00b7f6",
" 5 c #00a9fc",
" 6 c #00b2f5",
" 7 c #00b8fb",
" 8 c #00abff",
" 9 c #00acf6",
" 0 c #00adf6",
" a c #00b0f5",
" b c #00b9fc",
" c c #00a8fa",
" d c #00a6f6",
" e c #00a9f6",
" f c #00aff6",
" g c #009df7",
" h c #00a1f7",
" i c #00a4f6",
" j c #00a8f6",
" k c #00aef6",
" l c #00b4f9",
" m c #00b7f9",
" n c #009dfd",
" o c #00a3f6",
" p c #00a7f6",
" q c #00aaf6",
" r c #00b6fa",
" s c #00b9f4",
" t c #009cfe",
" u c #009efc",
" v c #00a1fb",
" w c #00a3f9",
" x c #00adfc",
" y c #00affc",
" z c #00a5ff",
" A c #00a8fb",
" B c #009ff8",
" C c #00b0fd",
" D c #009af9",
" E c #00abf5",
" F c #00baff",
" G c #0091ff",
" H c #0094f9",
" I c #00bcff",
" J c #0085ff",
" K c #008afd",
" L c #00b1fe",
" M c #009af8",
" N c #00a4ff",
" O c #008ffb",
" P c #0097fe",
" Q c #008afc",
" R c #99c2db",
" S c #ab87e4",
" T c #9e75e4",
" U c #38a4df",
" V c #1fb3ea",
" W c #128ef2",
" X c #6f4dfe",
" Y c #e2d6ef",
" Z c #c2b5ea",
" ` c #24b4e8",
".  c #4f64fc",
".. c #f4f7f8",
".+ c #96acdd",
".@ c #6e8aee",
".# c #8c7bce",
".$ c #8142ff",
".% c #d2e9ef",
".& c #7d40ff",
".* c #7b43ff",
".= c #b7d3ef",
".- c #fdfcfd",
".; c #29b2ee",
".> c #a38be0",
"., c #8658ef",
".' c #876de9",
".) c #9bc8d5",
".! c #7c40ff",
".~ c #40a2e2",
".{ c #8943f1",
".] c #8c31ff",
".^ c #6550fd",
"./ c #eeecf7",
".( c #2397ee",
"._ c #5460fd",
".: c #44a4d8",
".< c #e2e0ea",
".[ c #7d63f0",
".} c #d3e4eb",
".| c #cfe7ef",
".1 c #e8e1ee",
".2 c #9285e7",
".3 c #aba3e1",
".4 c #714efb",
".5 c #8e5ded",
".6 c #e4e3f4",
".7 c #45bae2",
".8 c #7b61e4",
".9 c #6f4cfe",
".0 c #575efe",
".a c #f4f8fb",
".b c #575efd",
".c c #027cfa",
".d c #babbe0",
".e c #6450fd",
".f c #5dc0df",
".g c #69aee0",
".h c #a5d0e6",
".i c #9257ef",
".j c #3772f9",
".k c #c4bfd8",
".l c #b4abd8",
".m c #31a4e8",
".n c #4ba6e8",
".o c #7449ff",
".p c #7745ff",
".q c #11aced",
".r c #ffffff",
".s c #ebe6f1",
".t c #912cff",
".u c #8438ff",
".v c #9d87ec",
".w c #655ef6",
".x c #39b6dc",
".y c #027cfb",
".z c #426bfd",
".A c #69b7e2",
".B c #8735f8",
".C c #daecf3",
".D c #893bff",
".E c #962dff",
".F c #f3f3f8",
".G c #2fa8e8",
".H c #f1f7fa",
".I c #fafdfe",
".J c #ecf3f7",
".K c #fcfefe",
".L c #595dfd",
".M c #8995e5",
".N c #75b0e5",
".O c #6156fd",
".P c #dde6eb",
".Q c #9b53de",
".R c #7a49fe",
".S c #98a3e7",
".T c #c3b5e5",
".U c #30b6e4",
".V c #843dff",
".W c #e8dff3",
".X c #fdfdfe",
".Y c #0baaf6",
".Z c #7eb6d3",
".` c #feffff",
"+  c #436bff",
"+. c #6066f4",
"++ c #a8d0ea",
"+@ c #954be3",
"+# c #027dfb",
"+$ c #b19ae1",
"+% c #6851fd",
"+& c #e9f4f7",
"+* c #69bfe4",
"+= c #f9f8fe",
"+- c #87cfe5",
"+; c #deeef5",
"+> c #9477da",
"+, c #badaeb",
"+' c #6dcae6",
"+) c #b6d3e6",
"+! c #1e78fd",
"+~ c #53b3e3",
"+{ c #5f58fd",
"+] c #9c5ce1",
"+^ c #1f7bff",
"+/ c #a996db",
"+( c #6851fe",
"+_ c #6c4efe",
"+: c #6853ff",
"+< c #c5cff0",
"+[ c #8537ff",
"+} c #5262fc",
"+| c #f5fbfe",
"+1 c #8439ff",
"+2 c #426afc",
"+3 c #a6c5de",
"+4 c #cdc5e8",
"+5 c #a4c9da",
"+6 c #5a5cfd",
"+7 c #9135ff",
"+8 c #78bad0",
"+9 c #d7d2ed",
"+0 c #bea6d4",
"+a c #4e65ff",
"+b c #f6f7fb",
"+c c #02a0f9",
"+d c #7746fb",
"+e c #716bf0",
"+f c #ab7be9",
"+g c #585fff",
"+h c #8963ec",
"+i c #299fe5",
"+j c #c1dae2",
"+k c #e2edf1",
"+l c #8a3cff",
"+m c #fbfcfc",
"+n c #436cff",
"+o c #dce9ee",
"+p c #e3daef",
"+q c #7bbcd5",
"+r c #615aff",
"+s c #4f68ff",
"+t c #8b5bf4",
"+u c #8faedd",
"+v c #a07de2",
"+w c #9794e3",
"+x c #cfbfdf",
"+y c #615bff",
"+z c #8984eb",
"+A c #7843ff",
"+B c #99c4e8",
"+C c #883bff",
"+D c #8777ed",
"+E c #5cb2ea",
"+F c #5d8dfb",
"+G c #8866e5",
"+H c #0caff1",
"+I c #6953ff",
"+J c #9fd6e9",
"+K c #962eff",
"+L c #027efd",
"+M c #af8fd7",
"+N c #54abe6",
"+O c #f6f4fa",
"+P c #724eff",
"+Q c #0699f8",
"+R c #90cbe7",
"+S c #c5bfea",
"+T c #7746ff",
"+U c #59a3ce",
"+V c #5dc3e9",
"+W c #d9dde7",
"+X c #3673ff",
"+Y c #36a4e8",
"+Z c #4d64fd",
"+` c #a9d6ed",
"@  c #fdfcfe",
"@. c #7075e5",
"@+ c #b7cfd8",
"@@ c #faf9fb",
"@# c #3db0dc",
"@$ c #833eff",
"@% c #e7f0f6",
"@& c #0c91f4",
"@* c #4f66ff",
"@= c #c4deed",
"@- c #8b32ff",
"@; c #fdfeff",
"@> c #86bce0",
"@, c #6752fd",
"@' c #3eb4db",
"@) c #8546f8",
"@! c #c2a5ea",
"@~ c #8e34ff",
"@{ c #b085e5",
"@] c #8e35fe",
"@^ c #b4b7e7",
"@/ c #5d63f9",
"@( c #d2c9eb",
"@_ c #873ff5",
"@: c #6a53ff",
"@< c #4d64fc",
"@[ c #b6cedc",
"@} c #c6b8e6",
"@| c #8177e3",
"@1 c #2178f8",
"@2 c #1e77fb",
"@3 c #6355fd",
"@4 c #02a2fa",
"@5 c #f1ecf7",
"@6 c #666cef",
"@7 c #9048e9",
"@8 c #f7f6f9",
"@9 c #6c54ff",
"@0 c #6376ee",
"@a c #278eee",
"@b c #f1f0f6",
"@c c #bfa3e7",
"@d c #eff6f8",
"@e c #7b4bf9",
"@f c #c1b2db",
"@g c #93d6e8",
"@h c #ae89d4",
"@i c #d7dee7",
"@j c #6058fd",
"@k c #027fff",
"@l c #dae9f4",
"@m c #6b50fe",
"@n c #7f42ff",
"@o c #03bbf7",
"@p c #847be2",
"@q c #8a70d9",
"@r c #26a7f0",
"@s c #8f35ff",
"@t c #7947ff",
"@u c #605cff",
"@v c #6454fd",
"@w c #edecf7",
"@x c #7a48ff",
"@y c #6653fc",
"@z c #ebe4f5",
"@A c #965fdd",
"@B c #039af7",
"@C c #8339ff",
"@D c #704eff",
"@E c #873bff",
"@F c #61a2e3",
"@G c #7e41ff",
"@H c #35ace6",
"@I c #7645ff",
"@J c #ba9de7",
"@K c #3470fb",
"@L c #29b2e1",
"@M c #6b53ff",
"@N c #0aa1f4",
"@O c #4197ed",
"@P c #6059ff",
"@Q c #8298e4",
"@R c #704cff",
"@S c #6653fd",
"@T c #e7f1f5",
"@U c #5860ff",
"@V c #40a4e7",
"@W c #8042ff",
"@X c #eaf1f6",
"@Y c #3471fd",
"@Z c #f1f8fa",
"@` c #7846ff",
"#  c #704bff",
"#. c #1d8fed",
"#+ c #60a6e5",
"#@ c #813fff",
"## c #4c92fb",
"#$ c #734bff",
"#% c #eeeef6",
"#& c #7448ff",
"#* c #8f64e8",
"#= c #cccfe2",
"#- c #8041ff",
"#; c #22b7eb",
"#> c #6750fe",
"#, c #8933ff",
"#' c #54abd9",
"#) c #e4d9f0",
"#! c #5d5afd",
"#~ c #7b49ff",
"#{ c #f7fafb",
".r.r.r.r.r.r.r.r.r.r.r.r.r.r.r.r.r.r.r.r.r.r.r.r.r.r.r.r.r.r.r.r.r.r.r.r.r.r.r.r.r.r.r.r.r.r.r.r",
".r.r.r.r.r.r.r.r.r.r.r.r.r.r.r.r.r.r.r.r.r.r.r.r.r.r.r.r.r.r.r.r.r.r.r.r.r.r.r.r.r.r.r.r.r.r.r.r",
".r.r.r.r.r.r.r.r.r.r.r.r.r.r.r.r.r.r.r.r.r.r.r.r.r.r.r.r.r.r.r.r.r.r.r.r.r.r.r.r.r.r.r.r.r.r.r.r",
".r.r.r.r.r.r.r.r.r.r.r.r.r.r.r.r.r.r.r.r.r.r.r.r.r.r.r.r.r.r.r.r.r.r.r.r.r.r.r.r.r.r.r.r.r.r.r.r",
".r.r.r.r.r.r.r.r.r.r.r.r.r.r.r.r.r.r.r.r.r.r.r.r.r.r.r.r.r.r.r.r.r.r.r.r.r.r.r.r.r.r.r.r.r.r.r.r",
".r.r.r.r.r.r.r.r.r.r.r.r.r.r.r.r.r.r.r.r.r.r.r.r.r.r.r.r.r.r.r.r.r.r.r.r.r.r.r.r.r.r.r.r.r.r.r.r",
".r.r.r.r.r.r.r.r.r.r.r.r.r.r.r.r.r.r.r.r.r.r.r.r.r.r.r.r.r.r.r.r.r.r.r.r.r.r.r.r.r.r.r.r.r.r.r.r",
".r.r.r.r.r.r.r.r.r.r.r.r.r.r.r.r.r.r.r.r.r.r.r.r.r.r.r.r.r.r.r.r.r.r.r.r.r.r.r.r.r.r.r.r.r.r.r.r",
".r.r.r.r.r.r.r.r.r.r.r.r.r.r.r.r.r.r.r.r.r.r.r.r.r.r.r.r.r.r.r.r.r.r.r.r.r.r.r.r.r.r.r.r.r.r.r.r",
".r.r.r.r.r.r.r.r.r.r.r.r.r.r.r.r.r.r.r.r.r.r.r.r.r.r.r.r.r.r.r.r.r.r.r.r.r.r.r.r.r.r.r.r.r.r.r.r",
".r.r.r.r.r.r.r.r.r.r.r.r.r.r.r.r.r.r.r.r.r.r.r.r.r.r.r.r.r.r.r.r.r.r.r.r.r.r.r.r.r.r.r.r.r.r.r.r",
".r.r.r.r.r.r.r.r.r.r.r.r.r.r.r.r.r@ +S+z+.+Z.z@K@2+#   W.n++.I.r.r.r.r.r.r.r.r.r.r.r.r.r.r.r.r.r",
".r.r.r.r.r.r.r.r.r.r.r.r.r.r.r.r@(.'+I+r+g+Z+2@K@2.c . + @ #+Y+,.r.r.r.r.r.r.r.r.r.r.r.r.r.r.r.r",
".r.r.r.r.r.r.r.r.r.r.r.r.r.r.r+$+d+P+(+{.b@<+2@K@2.c . $ % & *+c =.r.r.r.r.r.r.r.r.r.r.r.r.r.r.r",
".r.r.r.r.r.r.r.r.r.r.r.r.r.r S#-.p.9+%+{.b@<+2@K@2.c . $ % & - ; >+*.`.r.r.r.r.r.r.r.r.r.r.r.r.r",
".r.r.r.r.r.r.r.r.r.r.r.r.r+M.D.&@I.9+%+{.0+a+n+X+^@k , $ % & - ' ) !+q.r.r.r.r.r.r.r.r.r.r.r.r.r",
".r.r.r.r.r.r.r.r.r.r.r.r+x@]+1.!@I.9+%@P@U@0@Q.++u@F@a ~ { & - ' ] ^ /@+.r.r.r.r.r.r.r.r.r.r.r.r",
".r.r.r.r.r.r.r.r.r.r.r@8+@@~@C.!@I.9+I+e.d+b.r.r.r.r.a+3.( ( - ' ] _ :@L...r.r.r.r.r.r.r.r.r.r.r",
".r.r.r.r.r.r.r.r.r.r.r+0+K#,@C.!@I+P+D@w.r.r.r.r.r.r.r.r@%@V < ' ] _ [ }.).r.r.r.r.r.r.r.r.r.r.r",
".r.r.r.r.r.r.r.r.r.r.r.Q.E#,@C.!@t.8@b.r.r.r.r.r.r.r.r.r.r.J+i | ] _ [ 1.x.r.r.r.r.r.r.r.r.r.r.r",
".r.r.r.r.r.r.r.r.r.r#=@y.t@-@C.!.R.k.r.r.r.r.r.r.r.r.r.r.r.r@[@4 2 _ 3 4@o+j.r.r.r.r.r.r.r.r.r.r",
".r.r.r.r.r.r.r.r.r.F@.+s.e.].u@n+G.r.r.r.r.r.r.r.r.r.r.r.r.r.` U 5 _ 3 6 7.U@d.r.r.r.r.r.r.r.r.r",
".r.r.r.r.r.r.r.r./@p+y.L. .^+[.$+/.r.r.r.r.r.r.r.r.r.r.r.r.r.r.Z 8 9 9 0 a b.7@T.r.r.r.r.r.r.r.r",
".r.r.r.r.r.r+O Z.[@M@v@j+6+}#>#@.T.r.r.r.r.r.r.r.r.r.r.r.r.r.r.h c d ] e 9 f / `+J@Z.r.r.r.r.r.r",
".r.r#)@!@J+v.,@`.o X@m@S.O#!._+:@}.r.r.r.r.r.r.r.r.r.r.r.r.r.r+` ; g h i j _ k l m#;.f+-@g.%.r.r",
".r.r@5@{.B+l@$.!+A#&# +_@,@3@u@/.l.r.r.r.r.r.r.r.r.r.r.r.r.r.r R+Q n g ' o p q 0 3 r } s+'+&.r.r",
".r.r.r.r Y+f@_.V#-.*+T#$@D@9@|@q+>.r.r.r.r.r.r.r.r.r.r.r.r.r.r#'.:.~ t u v w c x y+H+V.|.r.r.r.r",
".r.r.r.r.r.r.W@c T.5+t+h.v+4@f@)@e.<.r.r.r.r.r.r.r.r.r.r.r.r.P@N.Y+5+)+E.m@r.G+~+R.C.r.r.r.r.r.r",
".r.r.r.r.r.r.r.r.r.X+=.X.r+p.{@G#~.#.r.r.r.r.r.r.r.r.r.r.r.r+U z A.q.}.r@;+|.K.r.r.r.r.r.r.r.r.r",
".r.r.r.r.r.r.r.r.r.r.r.r.1@7@E.!@I+P.3.r.r.r.r.r.r.r.r.r.r@> n B ] C V+o.r.r.r.r.r.r.r.r.r.r.r.r",
".r.r.r.r.r.r.r.r.r.r.r.-+]@s@C.!@I@R@:+w#%.r.r.r.r.r.r@X.g # D ' ] E F@'+m.r.r.r.r.r.r.r.r.r.r.r",
".r.r.r.r.r.r.r.r.r.r.r.r@h+7@C.!@I.9+(+r@6.S+<+W@i.=.N#. G H - ' ] _ I+8.`.r.r.r.r.r.r.r.r.r.r.r",
".r.r.r.r.r.r.r.r.r.r.r.r@@@A+C.!@I.9+%+{+g@*+2.j@1.y J K % & - ' ] L@##{.r.r.r.r.r.r.r.r.r.r.r.r",
".r.r.r.r.r.r.r.r.r.r.r.r.r.s.i@W@I.9+%+{.b@<+2@Y+!.c . $ % & - ' >.;+k.r.r.r.r.r.r.r.r.r.r.r.r.r",
".r.r.r.r.r.r.r.r.r.r.r.r.r.r@z#*@x@R+%+{.b@<+2@K@2.c . $ % & M N@H+;.r.r.r.r.r.r.r.r.r.r.r.r.r.r",
".r.r.r.r.r.r.r.r.r.r.r.r.r.r.r+O.>.4@:@P.b@<+2@K@2.c . $ O P@B.A.H.r.r.r.r.r.r.r.r.r.r.r.r.r.r.r",
".r.r.r.r.r.r.r.r.r.r.r.r.r.r.r.r.r+9.2.w@U@*+ @K@2+L J Q@&+N@=.r.r.r.r.r.r.r.r.r.r.r.r.r.r.r.r.r",
".r.r.r.r.r.r.r.r.r.r.r.r.r.r.r.r.r.r.r.6@^.M.@+F##@O#++B@l.r.r.r.r.r.r.r.r.r.r.r.r.r.r.r.r.r.r.r",
".r.r.r.r.r.r.r.r.r.r.r.r.r.r.r.r.r.r.r.r.r.r.r.r.r.r.r.r.r.r.r.r.r.r.r.r.r.r.r.r.r.r.r.r.r.r.r.r",
".r.r.r.r.r.r.r.r.r.r.r.r.r.r.r.r.r.r.r.r.r.r.r.r.r.r.r.r.r.r.r.r.r.r.r.r.r.r.r.r.r.r.r.r.r.r.r.r",
".r.r.r.r.r.r.r.r.r.r.r.r.r.r.r.r.r.r.r.r.r.r.r.r.r.r.r.r.r.r.r.r.r.r.r.r.r.r.r.r.r.r.r.r.r.r.r.r",
".r.r.r.r.r.r.r.r.r.r.r.r.r.r.r.r.r.r.r.r.r.r.r.r.r.r.r.r.r.r.r.r.r.r.r.r.r.r.r.r.r.r.r.r.r.r.r.r",
".r.r.r.r.r.r.r.r.r.r.r.r.r.r.r.r.r.r.r.r.r.r.r.r.r.r.r.r.r.r.r.r.r.r.r.r.r.r.r.r.r.r.r.r.r.r.r.r",
".r.r.r.r.r.r.r.r.r.r.r.r.r.r.r.r.r.r.r.r.r.r.r.r.r.r.r.r.r.r.r.r.r.r.r.r.r.r.r.r.r.r.r.r.r.r.r.r",
".r.r.r.r.r.r.r.r.r.r.r.r.r.r.r.r.r.r.r.r.r.r.r.r.r.r.r.r.r.r.r.r.r.r.r.r.r.r.r.r.r.r.r.r.r.r.r.r",
".r.r.r.r.r.r.r.r.r.r.r.r.r.r.r.r.r.r.r.r.r.r.r.r.r.r.r.r.r.r.r.r.r.r.r.r.r.r.r.r.r.r.r.r.r.r.r.r",
".r.r.r.r.r.r.r.r.r.r.r.r.r.r.r.r.r.r.r.r.r.r.r.r.r.r.r.r.r.r.r.r.r.r.r.r.r.r.r.r.r.r.r.r.r.r.r.r",
".r.r.r.r.r.r.r.r.r.r.r.r.r.r.r.r.r.r.r.r.r.r.r.r.r.r.r.r.r.r.r.r.r.r.r.r.r.r.r.r.r.r.r.r.r.r.r.r",
};