<?xml version="1.0" encoding="utf-8"?>
<!-- Generator: Adobe Illustrator 23.0.0, SVG Export Plug-In . SVG Version: 6.00 Build 0)  -->
<svg version="1.1" id="ic_piv" xmlns="http://www.w3.org/2000/svg" xmlns:xlink="http://www.w3.org/1999/xlink" x="0px" y="0px"
	 viewBox="0 0 24 24" style="enable-background:new 0 0 24 24;" xml:space="preserve">
<style type="text/css">
	.st0{fill:#1E2651;}
	.st1{fill:none;}
</style>
<g id="Group_8935">
	<g id="Group_8934">
		<path id="Path_18928" class="st0" d="M12,2C6.5,2,2,6.5,2,12s4.5,10,10,10s10-4.5,10-10S17.5,2,12,2z M12,21.3
			c-5.1,0-9.3-4.1-9.3-9.3S6.9,2.8,12,2.8s9.3,4.1,9.3,9.3S17.1,21.3,12,21.3L12,21.3z"/>
	</g>
</g>
<path id="Rectangle_4543" class="st1" d="M0,0h24v24H0V0z"/>
<path class="st0" d="M12,3.5c-4.7,0-8.5,3.8-8.5,8.5s3.8,8.5,8.5,8.5s8.5-3.8,8.5-8.5S16.7,3.5,12,3.5z M6.1,14.1l5.2-7.1H6.3V6.2
	h6.3V7L7.3,14h5.6v0.8H6.1V14.1z M17.2,15.6C17.2,15.6,17.2,15.6,17.2,15.6C17.2,15.6,17.2,15.6,17.2,15.6c-0.2,0-0.3,0-0.4-0.1
	c-0.1,0-0.1,0-0.2,0c-0.2-0.1-0.4-0.1-0.5-0.2c-0.1-0.1-0.3-0.2-0.4-0.3l1.2,1.5c-0.6,1.2-1.9,2-3.4,2c-1.5,0-2.7-0.8-3.4-2l0.5-0.6
	h1c0.4,0.6,1.1,1,1.8,1c1.2,0,2.2-1,2.2-2.2c0-1.2-1-2.2-2.2-2.2c-0.6,0-1.3,0.3-1.7,0.8H10c0.5-1.4,1.9-2.5,3.6-2.5
	c1.7,0,3.1,1.1,3.6,2.6l0,0c0,0,0.5,1.4,2.5,1.3C19.1,15.1,18.2,15.6,17.2,15.6z"/>
</svg>
