<?xml version="1.0" encoding="utf-8"?>
<!-- Generator: Adobe Illustrator 23.0.0, SVG Export Plug-In . SVG Version: 6.00 Build 0)  -->
<svg version="1.1" id="ic_piv" xmlns="http://www.w3.org/2000/svg" xmlns:xlink="http://www.w3.org/1999/xlink" x="0px" y="0px"
	 viewBox="0 0 24 24" style="enable-background:new 0 0 24 24;" xml:space="preserve">
<style type="text/css">
	.st0{fill:#1E2651;}
	.st1{fill:none;}
</style>
<g id="Group_8935">
	<g id="Group_8934">
		<path id="Path_18928" class="st0" d="M12,2C6.5,2,2,6.5,2,12s4.5,10,10,10s10-4.5,10-10S17.5,2,12,2z M12,21.3
			c-5.1,0-9.3-4.1-9.3-9.3S6.9,2.8,12,2.8s9.3,4.1,9.3,9.3S17.1,21.3,12,21.3L12,21.3z"/>
	</g>
</g>
<path id="Rectangle_4543" class="st1" d="M0,0h24v24H0V0z"/>
<g>
	<path class="st0" d="M12,9.1c-1.5,0-2.7,1.2-2.7,2.7s1.2,2.7,2.7,2.7c1.5,0,2.7-1.2,2.7-2.7S13.5,9.1,12,9.1z"/>
	<path class="st0" d="M12,3.5c-4.7,0-8.5,3.8-8.5,8.5s3.8,8.5,8.5,8.5s8.5-3.8,8.5-8.5S16.7,3.5,12,3.5z M16.7,13.1
		C16.6,13.1,16.6,13.1,16.7,13.1c-0.1,0-0.2,0-0.2,0c-0.2,0-0.4-0.1-0.6-0.1c0,0,0,0-0.1,0c-0.2-0.1-0.4-0.2-0.6-0.3
		c-0.2-0.1-0.4-0.3-0.6-0.4l1.6,1.9c-0.8,1.5-2.4,2.6-4.3,2.6c-1.8,0-3.5-1-4.3-2.6l1.6-1.9c-0.2,0.2-0.4,0.3-0.6,0.4
		c-0.2,0.1-0.4,0.2-0.6,0.3c0,0,0,0-0.1,0c-0.2,0.1-0.4,0.1-0.6,0.1c0,0-0.1,0-0.1,0c0,0-0.1,0-0.1,0c0,0,0,0,0,0
		C6.1,13.2,5,12.5,4.2,12c2.6,0.1,3.1-1.7,3.1-1.7l0,0C8.1,8.4,9.9,7,12,7c2.1,0,3.9,1.4,4.6,3.3l0,0c0,0,0.6,1.8,3.1,1.7
		C19,12.5,17.9,13.2,16.7,13.1C16.7,13.1,16.7,13.1,16.7,13.1z"/>
</g>
</svg>
