<?xml version="1.0" encoding="utf-8"?>
<!-- Generator: Adobe Illustrator 23.0.0, SVG Export Plug-In . SVG Version: 6.00 Build 0)  -->
<svg version="1.1" id="Layer_1" xmlns="http://www.w3.org/2000/svg" xmlns:xlink="http://www.w3.org/1999/xlink" x="0px" y="0px"
	 viewBox="0 0 24 30" style="enable-background:new 0 0 24 30;" xml:space="preserve">
<style type="text/css">
	.st0{fill:#938DA5;}
</style>
<title>Master Active</title>
<desc>Created with Sketch.</desc>
<g id="Group-2" transform="translate(1.000000, 7.000000)">
	<path id="Path_18873" class="st0" d="M20.4,15.4c0.4-1.1,0.6-2.2,0.6-3.4c0-4.4-2.9-8.2-7.1-9.6C13.7,1,12.4,0,11,0S8.3,1,8,2.4
		C5.4,3.2,3.3,5.1,2,7.5s-1.4,5.3-0.5,7.8c-1,0.6-1.6,1.7-1.6,2.8c0.1,1.2,0.8,2.2,2,2.6C3,21.1,4.2,20.8,5.1,20
		c3.5,2.5,8.2,2.5,11.7,0c0.8,0.8,2.1,1.1,3.2,0.7s1.9-1.4,2-2.6C22.1,17,21.4,15.9,20.4,15.4L20.4,15.4z M11,2c0.6,0,1,0.4,1,1
		s-0.4,1-1,1s-1-0.4-1-1S10.4,2,11,2z M3,19c-0.6,0-1-0.4-1-1s0.4-1,1-1s1,0.4,1,1C4,18.5,3.5,19,3,19z M11,20c-1.8,0-3.6-0.6-5-1.8
		c0-0.1,0-0.1,0-0.2c0-1.4-1-2.6-2.4-2.9c-0.9-2-0.8-4.3,0.1-6.3s2.6-3.6,4.7-4.3C8.9,5.4,9.9,6,11,6s2.1-0.6,2.6-1.6
		C16.8,5.5,19,8.6,19,12c0,1.1-0.2,2.1-0.6,3.1C17,15.3,16,16.6,16,18c0,0.1,0,0.1,0,0.2C14.6,19.3,12.8,20,11,20z M19,19
		c-0.6,0-1-0.4-1-1s0.4-1,1-1s1,0.4,1,1C20,18.5,19.5,19,19,19z"/>
	<path class="st0" d="M13.9,12.9c0.5,0.3,0.6,0.3,1.3,0.4l0,0c0.7-2.6-1.1-5.2-3.9-5.4c-2.6-0.2-4.8,1.8-4.8,4.4
		c0,0.4,0,0.7,0.1,1.1c0.4,0,0.8-0.1,1.3-0.3c0.2-0.1,0.4-0.3,0.5-0.4L7,14.3c0.8,1.4,2.2,2.3,3.9,2.3s3.1-0.9,3.9-2.3l-1.2-1.6
		C13.8,12.8,13.7,12.8,13.9,12.9z M11.4,14.6c-1.7,0.3-3.1-1.2-2.9-2.9c0.2-1,1-1.9,2-2c1.7-0.3,3.1,1.2,2.9,2.9
		C13.2,13.6,12.4,14.5,11.4,14.6z"/>
	<path class="st0" d="M8,13c0.2-0.1,0.4-0.3,0.5-0.4l-1.7-1.8c0,0-0.5,1.6-2.8,1.6C4.9,13,6.5,13.9,8,13z"/>
	<path class="st0" d="M18,12.3c-2.3,0.1-2.9-1.6-2.9-1.6l-1.7,1.8c0.1,0.1,0.3,0.3,0.5,0.4C15.4,13.9,17.1,13,18,12.3z"/>
</g>
</svg>
