<?xml version="1.0" encoding="utf-8"?>
<!-- Generator: Adobe Illustrator 23.0.0, SVG Export Plug-In . SVG Version: 6.00 Build 0)  -->
<svg version="1.1" id="ic_empty_masternode" xmlns="http://www.w3.org/2000/svg" xmlns:xlink="http://www.w3.org/1999/xlink"
	 x="0px" y="0px" viewBox="0 0 100 100" style="enable-background:new 0 0 100 100;" xml:space="preserve">
<style type="text/css">
	.st0{fill:#D6D6D6;}
	.st1{fill:#666666;}
	.st2{fill:none;}
</style>
<g id="Group_9022">
	<g id="Group_9020">
		<circle id="Ellipse_615" class="st0" cx="52" cy="16.4" r="8.4"/>
		<circle id="Ellipse_616" class="st0" cx="85.6" cy="79.4" r="8.4"/>
		<circle id="Ellipse_617" class="st0" cx="18.4" cy="79.4" r="8.4"/>
	</g>
	<g id="Group_9021">
		<path id="Path_18979" class="st1" d="M87.4,70.2c2.3-5,3.5-10.5,3.4-16c-0.1-17.8-12.2-33.3-29.4-37.6c0-0.1,0-0.1,0-0.2
			c0-5.2-4.2-9.4-9.4-9.4c-5.2,0-9.4,4.2-9.4,9.4c0,0.1,0,0.1,0,0.2c-20.8,5.2-33.4,26.2-28.3,47c0.6,2.3,1.3,4.5,2.3,6.6
			c-5.1,1-8.5,5.9-7.5,11c1,5.1,5.9,8.5,11,7.5c2.9-0.5,5.3-2.4,6.6-5c14.5,12.5,35.9,12.5,50.5,0c2.4,4.6,8,6.5,12.6,4.1
			s6.5-8,4.1-12.6C92.7,72.5,90.2,70.7,87.4,70.2z M52,9c4.1,0,7.4,3.3,7.4,7.4s-3.3,7.4-7.4,7.4s-7.4-3.3-7.4-7.4
			C44.6,12.3,47.9,9,52,9z M18.4,86.8c-4.1,0-7.4-3.3-7.4-7.4s3.3-7.4,7.4-7.4s7.4,3.3,7.4,7.4C25.8,83.5,22.5,86.8,18.4,86.8z
			 M52,91c-9,0-17.8-3.3-24.5-9.3c1.3-5-1.8-10.1-6.8-11.4c-0.6-0.2-1.3-0.3-2-0.3c-8.7-18.3-1-40.3,17.4-49c2.1-1,4.4-1.8,6.7-2.4
			c1.2,5,6.2,8.2,11.3,7c3.5-0.8,6.2-3.5,7-7c16.2,4.3,27.6,18.9,27.7,35.6c0,5.5-1.2,10.9-3.6,15.8c-5.2,0.2-9.2,4.5-9,9.7
			c0,0.7,0.1,1.3,0.3,2C69.8,87.7,61,91,52,91z M85.6,86.8c-4.1,0-7.4-3.3-7.4-7.4s3.3-7.4,7.4-7.4s7.4,3.3,7.4,7.4
			C93,83.5,89.7,86.8,85.6,86.8z"/>
	</g>
</g>
<path id="Rectangle_4674" class="st2" d="M0,0h100v100H0V0z"/>
<g>
	<g>
		<path class="st1" d="M64.3,58.4c1.7,1.1,3.7,1.4,5.4,1.6c0,0,0,0,0,0c3.1-11.1-4.8-22.6-16.4-23.6c-11.1-1-20.4,7.7-20.4,18.6
			c0,1.7,0.2,3.3,0.6,5.1c1.7,0,3.7-0.6,5.4-1.6c0.6-0.4,1.5-1.1,2.1-1.7l-6,7.1c3.2,5.8,9.4,9.9,16.5,9.9s13.3-3.9,16.5-9.9
			l-5.8-6.9C63.2,57.5,63.6,57.8,64.3,58.4z M53.6,65.4c-7.2,1.2-13.3-5-12.2-12.2c0.7-4.4,4.2-7.9,8.6-8.6
			c7.2-1.2,13.3,5,12.2,12.2C61.5,61.1,57.9,64.6,53.6,65.4z"/>
		<path class="st1" d="M39.1,58.4c0.6-0.4,1.5-1.1,2.1-1.7L34,49c0,0-2.1,6.9-12,6.7C25.8,58.4,32.7,62.3,39.1,58.4z"/>
		<path class="st1" d="M81.6,55.6C71.8,56.1,69.3,49,69.3,49l-7.1,7.8c0.6,0.6,1.2,1.1,2.1,1.6C70.7,62.3,77.8,58.4,81.6,55.6z"/>
	</g>
</g>
</svg>
