<?xml version="1.0" encoding="utf-8"?>
<!-- Generator: Adobe Illustrator 23.0.0, SVG Export Plug-In . SVG Version: 6.00 Build 0)  -->
<svg version="1.1" id="Layer_1" xmlns="http://www.w3.org/2000/svg" xmlns:xlink="http://www.w3.org/1999/xlink" x="0px" y="0px"
	 viewBox="0 0 49 30.8" style="enable-background:new 0 0 49 30.8;" xml:space="preserve">
<style type="text/css">
	.st0{fill:#FFFFFF;}
</style>
<g>
	<path class="st0" d="M34.9,18.2c1.5,0.9,3,1.3,4.4,1.4c0.4-1.3,0.6-2.7,0.6-4.2C40,6.9,33.1,0,24.6,0S9.2,6.9,9.2,15.4
		c0,1.4,0.2,2.8,0.6,4.2c1.5-0.1,3-0.5,4.4-1.4c0.6-0.4,1.2-0.8,1.8-1.4l-5,5.9c2.6,4.8,7.7,8.1,13.5,8.1c5.8,0,10.9-3.3,13.5-8.1
		l-5-5.9C33.7,17.3,34.3,17.8,34.9,18.2z M24.6,24.1c-4.8,0-8.7-3.9-8.7-8.7s3.9-8.7,8.7-8.7s8.7,3.9,8.7,8.7S29.4,24.1,24.6,24.1z"
		/>
	<path class="st0" d="M14.2,18.2c0.6-0.4,1.2-0.8,1.8-1.4l-6-6.3c0,0-1.8,5.7-10,5.4C3.2,18.3,8.9,21.4,14.2,18.2z"/>
	<path class="st0" d="M49.1,15.9c-8.2,0.3-10-5.4-10-5.4l-6,6.3c0.6,0.5,1.2,1,1.8,1.4C40.2,21.4,45.9,18.3,49.1,15.9z"/>
</g>
</svg>
