<?xml version="1.0" encoding="utf-8"?>
<!-- Generator: Adobe Illustrator 23.0.0, SVG Export Plug-In . SVG Version: 6.00 Build 0)  -->
<svg version="1.1" id="Layer_1" xmlns="http://www.w3.org/2000/svg" xmlns:xlink="http://www.w3.org/1999/xlink" x="0px" y="0px"
	 viewBox="0 0 300 100" style="enable-background:new 0 0 300 100;" xml:space="preserve">
<style type="text/css">
	.st0{fill:#FFFFFF;}
	.st1{fill:url(#SVGID_1_);}
	.st2{fill:url(#SVGID_2_);}
	.st3{fill:url(#SVGID_3_);}
</style>
<g>
	<g>
		<path class="st0" d="M148.3,31.3v24.5c0,5-1.3,8.9-4,11.6c-2.7,2.7-6.4,4-11.2,4c-2.9,0-5.5-0.4-7.8-1.3c-2.3-0.9-4.3-2.1-5.9-3.8
			l2.1-3.9c3.1,3,6.9,4.5,11.6,4.5c6.8,0,10.3-3.7,10.3-11v-3.5c-2.3,3.4-5.9,5.1-10.8,5.1c-4.4,0-7.8-1.3-10.2-3.8
			s-3.6-6.1-3.6-10.8V31.3h5v11.5c0,3.4,0.8,6,2.5,7.7c1.7,1.8,4,2.6,6.9,2.6c3.2,0,5.7-0.9,7.5-2.8c1.8-1.9,2.7-4.6,2.7-8.3V31.3
			H148.3z"/>
		<path class="st0" d="M164,64.8c-2.1-1.2-3.7-2.8-4.9-4.8c-1.2-2-1.8-4.4-1.8-7c0-2.6,0.6-4.9,1.8-7c1.2-2,2.8-3.6,4.9-4.8
			c2.1-1.1,4.5-1.7,7.1-1.7c2.6,0,5,0.6,7,1.7c2.1,1.1,3.7,2.7,4.9,4.8c1.2,2,1.8,4.4,1.8,7c0,2.6-0.6,4.9-1.8,7
			c-1.2,2-2.8,3.6-4.9,4.8c-2.1,1.2-4.4,1.7-7,1.7C168.4,66.5,166.1,65.9,164,64.8z M175.6,61.2c1.3-0.8,2.4-1.9,3.2-3.3
			c0.8-1.4,1.1-3,1.1-4.9c0-1.8-0.4-3.4-1.1-4.9s-1.8-2.5-3.2-3.3c-1.3-0.8-2.9-1.1-4.6-1.1c-1.7,0-3.2,0.4-4.6,1.1
			c-1.3,0.8-2.4,1.9-3.2,3.3s-1.2,3-1.2,4.9c0,1.8,0.4,3.4,1.2,4.9c0.8,1.4,1.8,2.5,3.2,3.3c1.3,0.8,2.9,1.2,4.6,1.2
			C172.8,62.3,174.3,61.9,175.6,61.2z"/>
		<path class="st0" d="M221.2,29.3v37h-4.6V62c-1.1,1.5-2.4,2.6-4,3.3c-1.6,0.8-3.4,1.1-5.4,1.1c-2.6,0-4.9-0.6-6.9-1.7
			c-2-1.1-3.6-2.7-4.8-4.8s-1.7-4.4-1.7-7.1c0-2.7,0.6-5,1.7-7c1.1-2,2.7-3.6,4.8-4.7c2-1.1,4.3-1.7,6.9-1.7c1.9,0,3.6,0.4,5.2,1.1
			c1.6,0.7,2.9,1.8,4,3.2V29.3H221.2z M212.2,61.2c1.4-0.8,2.4-1.9,3.2-3.3c0.8-1.4,1.1-3,1.1-4.9c0-1.8-0.4-3.4-1.1-4.9
			c-0.8-1.4-1.8-2.5-3.2-3.3c-1.4-0.8-2.9-1.1-4.5-1.1c-1.7,0-3.2,0.4-4.6,1.1c-1.3,0.8-2.4,1.9-3.2,3.3c-0.8,1.4-1.2,3-1.2,4.9
			c0,1.8,0.4,3.4,1.2,4.9c0.8,1.4,1.8,2.5,3.2,3.3c1.3,0.8,2.9,1.2,4.6,1.2C209.3,62.3,210.8,61.9,212.2,61.2z"/>
		<path class="st0" d="M257.7,39.8v26.4h-4.6V62c-1.1,1.5-2.4,2.6-4,3.3c-1.6,0.8-3.4,1.1-5.4,1.1c-2.6,0-4.8-0.6-6.9-1.7
			c-2-1.1-3.6-2.7-4.8-4.8c-1.1-2-1.7-4.4-1.7-7.1c0-2.7,0.6-5,1.7-7c1.1-2,2.7-3.6,4.8-4.7s4.3-1.7,6.9-1.7c1.9,0,3.6,0.4,5.2,1.1
			c1.6,0.7,2.9,1.8,4,3.2v-4H257.7z M248.6,61.2c1.4-0.8,2.4-1.9,3.2-3.3c0.8-1.4,1.1-3,1.1-4.9c0-1.8-0.4-3.4-1.1-4.9
			c-0.8-1.4-1.8-2.5-3.2-3.3c-1.4-0.8-2.9-1.1-4.5-1.1c-1.7,0-3.2,0.4-4.6,1.1c-1.3,0.8-2.4,1.9-3.2,3.3c-0.8,1.4-1.2,3-1.2,4.9
			c0,1.8,0.4,3.4,1.2,4.9c0.8,1.4,1.8,2.5,3.2,3.3c1.3,0.8,2.9,1.2,4.6,1.2C245.8,62.3,247.3,61.9,248.6,61.2z"/>
		<g>
			<polygon class="st0" points="264.1,66.2 270.1,66.2 296.4,30.6 290.5,30.6 			"/>
			<polygon class="st0" points="297,66.2 291.1,66.2 264.8,30.6 270.7,30.6 			"/>
		</g>
	</g>
	<g>
		<linearGradient id="SVGID_1_" gradientUnits="userSpaceOnUse" x1="24.1026" y1="50.3823" x2="93.0217" y2="50.3823">
			<stop  offset="0" style="stop-color:#7329F7"/>
			<stop  offset="1" style="stop-color:#6DBFEE"/>
		</linearGradient>
		<path class="st1" d="M81.8,56.6c3.3,2,6.7,2.9,9.9,3.1c0.8-3,1.3-6.1,1.3-9.3c0-19-15.5-34.5-34.5-34.5S24.1,31.4,24.1,50.4
			c0,3.2,0.5,6.4,1.3,9.3c3.3-0.2,6.7-1.1,9.9-3.1c1.3-0.9,2.7-1.9,4-3.1L28.2,66.7c5.8,10.8,17.2,18.1,30.3,18.1
			c13.1,0,24.5-7.3,30.3-18.1L77.7,53.6C79.1,54.7,80.4,55.7,81.8,56.6z M58.6,69.8c-10.7,0-19.4-8.7-19.4-19.4s8.7-19.4,19.4-19.4
			S78,39.7,78,50.4S69.3,69.8,58.6,69.8z"/>
		<linearGradient id="SVGID_2_" gradientUnits="userSpaceOnUse" x1="10.9992" y1="66.5312" x2="54.1333" y2="9.019">
			<stop  offset="0" style="stop-color:#7329F7"/>
			<stop  offset="1" style="stop-color:#6DBFEE"/>
		</linearGradient>
		<path class="st2" d="M35.3,56.6c1.3-0.9,2.7-1.9,4-3.1L25.9,39.5c0,0-4.1,12.7-22.3,12.1C10.7,56.9,23.5,63.9,35.3,56.6z"/>
		<linearGradient id="SVGID_3_" gradientUnits="userSpaceOnUse" x1="56.9926" y1="104.1423" x2="102.2285" y2="43.8278">
			<stop  offset="0" style="stop-color:#7329F7"/>
			<stop  offset="1" style="stop-color:#6DBFEE"/>
		</linearGradient>
		<path class="st3" d="M113.6,51.6c-18.3,0.6-22.3-12.1-22.3-12.1L77.7,53.6c1.4,1.2,2.7,2.1,4,3.1C93.6,63.9,106.4,56.9,113.6,51.6
			z"/>
	</g>
</g>
</svg>
