<?xml version="1.0" encoding="utf-8"?>
<!-- Generator: Adobe Illustrator 23.0.0, SVG Export Plug-In . SVG Version: 6.00 Build 0)  -->
<svg version="1.1" id="ic_empty_multisend" xmlns="http://www.w3.org/2000/svg" xmlns:xlink="http://www.w3.org/1999/xlink" x="0px"
	 y="0px" viewBox="0 0 100 100" style="enable-background:new 0 0 100 100;" xml:space="preserve">
<style type="text/css">
	.st0{fill:#D6D6D6;}
	.st1{fill:#666666;}
	.st2{fill:none;}
</style>
<g id="Group_9031">
	<g id="Group_9029">
		<path id="Rectangle_4683" class="st0" d="M45,18h10v9H45V18z"/>
		<g id="Group_9028">
			<path id="Rectangle_4684" class="st0" d="M14,66h6v10h-6V66z"/>
			<path id="Rectangle_4685" class="st0" d="M80,66h6v10h-6V66z"/>
			<path id="Rectangle_4686" class="st0" d="M47,66h6v10h-6V66z"/>
		</g>
	</g>
	<g id="Group_9030">
		<path id="Rectangle_4688" class="st1" d="M67,40h2v4h-2V40z"/>
		<circle id="Ellipse_626" class="st1" cx="50" cy="73" r="1"/>
		<circle id="Ellipse_627" class="st1" cx="83" cy="73" r="1"/>
		<path id="Rectangle_4689" class="st1" d="M32,58h4v2h-4V58z"/>
		<path id="Path_18986" class="st1" d="M16,65h-3v3H7v4h2v-2h4v7h8v-7h4v21H9V76H7v17h20V68h-6v-3h-3v-5h10v-2H16V65z M19,67v8h-4
			v-8H19z"/>
		<circle id="Ellipse_628" class="st1" cx="17" cy="73" r="1"/>
		<path id="Path_18987" class="st1" d="M87,68v-3h-3v-7H51v-5h18v-5h-2v3H33V28h34v8h2v-8h4V17H59.5c2.2-2.5,2-6.3-0.5-8.5
			s-6.3-2-8.5,0.5c-0.2,0.2-0.4,0.5-0.5,0.7c-1.8-2.8-5.5-3.5-8.3-1.7c-2.8,1.8-3.5,5.5-1.7,8.3c0.2,0.3,0.4,0.5,0.6,0.7H27v11h4v25
			h18v5h-9v2h9v5h-3v3h-6v16h2V70h4v7h8v-7h4v21H42v-3h-2v5h20V68h-6v-3h-3v-5h31v5h-3v3h-6v12h2V70h4v7h8v-7h4v21H75v-7h-2v9h20V68
			H87z M71,19v7H56v-7H71z M51,13c0-2.2,1.8-4,4-4s4,1.8,4,4s-1.8,4-4,4h-4V13z M51,19h3v7h-8v-7H51z M45,9c2.2,0,4,1.8,4,4v4h-4
			c-2.2,0-4-1.8-4-4S42.8,9,45,9z M29,26v-7h15v7H29z M52,67v8h-4v-8H52z M85,75h-4v-8h4V75z"/>
	</g>
</g>
<path id="Rectangle_4690" class="st2" d="M0,0h100v100H0V0z"/>
<g>
	<g>
		<path class="st1" d="M55.8,41.5c0.8,0.5,1.7,0.7,2.5,0.8c0.2-0.7,0.3-1.5,0.3-2.4c0-4.8-3.9-8.7-8.7-8.7s-8.7,3.9-8.7,8.7
			c0,0.8,0.1,1.6,0.3,2.4c0.8,0,1.7-0.3,2.5-0.8c0.3-0.2,0.7-0.5,1-0.8L42.2,44c1.5,2.7,4.4,4.6,7.7,4.6c3.3,0,6.2-1.8,7.7-4.6
			l-2.8-3.3C55.2,41,55.5,41.2,55.8,41.5z M50,44.8c-2.7,0-4.9-2.2-4.9-4.9S47.3,35,50,35s4.9,2.2,4.9,4.9
			C54.9,42.6,52.7,44.8,50,44.8z"/>
		<path class="st1" d="M44.1,41.5c0.3-0.2,0.7-0.5,1-0.8l-3.4-3.6c0,0-1,3.2-5.6,3.1C37.9,41.5,41.1,43.3,44.1,41.5z"/>
		<path class="st1" d="M63.9,40.2c-4.6,0.2-5.6-3.1-5.6-3.1l-3.5,3.6c0.3,0.3,0.7,0.5,1,0.8C58.8,43.3,62.1,41.5,63.9,40.2z"/>
	</g>
</g>
</svg>
